<?xml version="1.0" encoding="utf-8"?>
<!DOCTYPE svg PUBLIC "-//W3C//DTD SVG 1.1//EN" "http://www.w3.org/Graphics/SVG/1.1/DTD/svg11.dtd">
<svg version="1.1" id="Layer_1" xmlns="http://www.w3.org/2000/svg" xmlns:xlink="http://www.w3.org/1999/xlink" x="0px" y="0px"
	 viewBox="0 0 1674.0173 1614.1602" enable-background="new 0 0 1674.0173 1614.1602" xml:space="preserve">
<g>
	<g>
		<g>
			<g>
				<g>
					<path fill="#009245" d="M550.3214,49.0818c-4.3357,10.2664-4.1781,22.2346,2.8199,31.301
						c11.3688-5.6747,21.635-15.3978,26.8413-27.1041c2.9243-6.4938,4.3518-13.8598,3.1495-20.944
						c-1.3533-7.9736-2.8745-12.0061-10.3807-7.5392C563.1218,30.5261,554.7303,38.6417,550.3214,49.0818
						C545.2528,61.0837,551.5869,46.0851,550.3214,49.0818z"/>
					<path fill="#009245" d="M590.5951,73.0866c-12.8888-2.2469-25.85,1.5724-36.5026,8.8699
						c4.1204,8.9463,12.6756,14.8667,22.076,17.1791c13.4969,3.3202,27.0446-0.1786,38.8698-6.8501
						C611.0042,81.7692,601.4634,75.0333,590.5951,73.0866C584.4578,72.0167,596.7531,74.1896,590.5951,73.0866z"/>
				</g>
				<g>
					<path fill="#009245" d="M493.3241,76.734c-4.4858,13.2495-2.8636,28.2116,6.8963,38.7541
						c13.4971-8.9648,25.0242-21.2197,30.6538-36.653c2.0408-5.5977,4.827-44.6047-7.0484-37.7906
						C510.1258,49.2758,498.5214,61.3932,493.3241,76.734C492.0191,80.5885,494.6296,72.8806,493.3241,76.734z"/>
					<path fill="#009245" d="M546.0115,102.4969c-14.5888-1.5219-29.6584,3.4613-41.2731,12.2602
						c-11.4445,8.6699,23.5334,21.4846,30.6075,22.0667c14.0695,1.1604,28.8173-3.1064,40.4395-11.0288
						C586.495,118.8531,552.26,103.1478,546.0115,102.4969C542.1268,102.0917,553.7828,103.3065,546.0115,102.4969z"/>
				</g>
				<g>
					<path fill="#009245" d="M425.0487,118.4911c-2.0375,9.0356-2.1361,18.3901,0.6435,27.2964
						c1.8194,5.8313,9.4562,23.3179,16.0449,17.5466c14.1859-12.4261,25.8041-28.7665,30.4926-47.2159
						c2.2403-8.817,3.0585-18.1601,1.2848-27.1358c-1.254-6.3427-6.6662-24.382-14.2335-19.0447
						C442.7939,81.5663,429.6408,98.6236,425.0487,118.4911C423.9177,123.507,427.3548,108.514,425.0487,118.4911z"/>
					<path fill="#009245" d="M493.9061,143.7402c-17.397-0.0534-34.8435,7.1715-47.6902,18.8292
						c-3.7607,3.3816-6.9334,3.9542-2.9622,8.4431c3.5496,4.0123,7.8254,7.3515,12.5258,9.9126
						c8.931,4.8662,19.3559,6.8965,29.474,6.6774c17.5026-0.2832,34.7488-7.327,48.3892-18.1073
						c6.3683-5.0331-9.2501-16.177-14.2238-19.0535C511.6792,145.9642,502.8176,143.7672,493.9061,143.7402
						C489.0663,143.7253,496.3261,143.7475,493.9061,143.7402z"/>
				</g>
				<g>
					<path fill="#009245" d="M345.6007,181.4371c-2.0687,21.9893,5.8145,44.1141,24.92,56.405
						c17.3579-18.6228,29.7218-41.8432,33.5721-67.1263c1.7648-12.5487,1.0458-25.8561-3.5511-37.76
						c-1.8259-4.7283-4.2737-9.2201-7.3379-13.2616c-5.0534-6.6653-6.5905-9.3651-13.0808-3.491
						C361.8878,132.7072,347.6596,156.6138,345.6007,181.4371C344.3821,194.3906,346.6843,168.3727,345.6007,181.4371z"/>
					<path fill="#009245" d="M435.126,201.7522c-21.7194,2.0616-41.8865,14.55-56.0134,30.785
						c-5.291,6.3359-7.0588,7.2454-0.2413,12.552c3.9543,3.078,8.3206,5.6132,12.9288,7.5768
						c11.1038,4.7315,23.5458,6.1203,35.5045,4.9718c23.0493-2.2138,44.2755-13.4811,60.6523-29.5571
						c4.8189-4.7304-0.3469-7.4762-4.5691-11.3248c-3.7207-3.3915-7.8728-6.3046-12.3339-8.6389
						C459.9843,202.3247,447.4898,200.4399,435.126,201.7522C422.9402,202.9089,441.1585,201.1119,435.126,201.7522z"/>
				</g>
				<g>
					<path fill="#009245" d="M257.784,275.6837c1.0508,14.5023,5.0625,28.9888,13.4282,41.0272
						c3.6731,5.2633,8.0845,10.0047,13.1021,14.0095c2.9262,2.3356,6.0518,4.4194,9.329,6.2294
						c5.1915,2.8672,5.7701,4.8522,9.2367-0.8374c15.2777-25.0747,24.7865-53.385,25.4575-82.8737
						c0.3488-15.3326-2.2568-30.9285-8.7391-44.8979c-2.7288-5.8054-6.1919-11.2748-10.3938-16.1281
						c-2.4509-2.8308-5.1491-5.4477-8.0673-7.7947c-4.4169-3.5523-4.933-5.7432-9.1238-0.9358
						C270.1026,208.617,256.0868,242.0189,257.784,275.6837C258.9817,292.2134,256.9634,259.4069,257.784,275.6837z"/>
					<path fill="#009245" d="M372.5216,282.8532c-23.9305,6.0386-44.33,22.351-58.2827,42.3503
						c-3.7899,5.4324-7.2677,11.1142-9.9512,17.1818c6.7712,4.8495,14.4178,8.4125,22.4362,10.6396
						c15.6649,4.3507,32.6065,3.7376,48.2202-0.5099c26.7024-7.264,49.367-23.3811,66.3986-44.974
						c5.4145-6.8646,2.1188-7.9856-4.4191-12.8239c-6.06-4.4846-12.7827-8.0629-19.9093-10.5286
						C402.6174,279.2073,387.225,279.1556,372.5216,282.8532C370.6857,283.3165,387.2288,279.1547,372.5216,282.8532z"/>
				</g>
				<g>
					<path fill="#009245" d="M170.6806,415.0471c4.5618,17.6346,13.588,34.6741,27.0216,47.148
						c6.8504,6.349,14.7561,11.5278,23.3409,15.2132c3.578,1.536,7.2655,2.8146,11.0236,3.8329
						c7.5515,2.0463,7.681,1.9348,10.0245-5.4031c11.7482-37.2967,16.5629-76.0878,8.3095-114.7274
						c-4.0252-18.8447-11.7419-37.4969-24.2049-52.3617c-5.9225-7.0639-12.9497-13.2188-20.9034-17.9016
						c-3.3557-1.9757-6.867-3.6866-10.4944-5.1034c-3.1034,4.9527-6.0501,10.006-8.7565,15.1872
						C168.7768,336.1237,160.7132,376.5111,170.6806,415.0471C171.3312,417.5619,169.3797,410.0177,170.6806,415.0471z"/>
					<path fill="#009245" d="M313.0667,394.8691c-29.8351,14.3448-51.4447,41.0695-62.8011,71.7938
						c-2.2195,6.0049-8.3759,16.8253-1.266,19.4202c9.3418,3.4095,19.2482,5.157,29.1813,5.3894
						c17.8782,0.4184,35.8672-3.8536,52.0312-11.3844c29.6426-13.8105,55.665-37.1541,70.839-66.3638
						c2.0312-3.5889,3.9246-7.2586,5.5934-11.031c-3.5072-2.3893-7.1574-4.5696-10.9319-6.5099
						c-8.8729-4.5611-18.4353-7.772-28.2931-9.3416C348.8689,383.8882,330.0888,387.1096,313.0667,394.8691
						C304.7111,398.8865,321.6475,390.9576,313.0667,394.8691z"/>
				</g>
				<g>
					<path fill="#009245" d="M104.4821,614.8001c11.255,20.2337,27.5209,38.0345,48.1846,48.8463
						c10.1222,5.298,21.1209,8.852,32.4381,10.4294c5.507,0.7676,11.076,1.0742,16.6342,0.9429
						c2.7836-0.0666,5.5606-0.2401,8.3309-0.5204c0.4194-4.6749,0.6624-9.3641,0.7955-14.0554
						c1.498-52.7734-7.5556-106.7802-34.3442-152.9274c-11.6055-19.9922-27.5134-38.4197-47.6583-50.1452
						c-9.0103-5.2445-18.8462-9.0719-29.0943-11.0398c-6.5457-1.2569-6.5059,6.8686-8.0722,12.3237
						c-2.0927,7.2886-3.7886,14.687-5.2176,22.1327C77.8586,525.7052,82.237,574.3187,104.4821,614.8001
						C106.0942,617.6982,101.2983,609.0062,104.4821,614.8001z"/>
					<path fill="#009245" d="M270.8463,545.5856c-35.7501,28.3109-54.4452,74.6571-54.038,119.7054
						c0.054,5.9701-2.1275,9.1948,4.7443,9.763c5.9665,0.4933,11.9721,0.4798,17.9388-0.0015
						c12.1078-0.9769,24.025-3.8746,35.3478-8.2431c18.3391-7.0811,34.6667-17.8534,49.5393-30.5857
						c29.553-25.3,51.09-60.4827,60.2261-98.2722c1.3696-5.6651,3.9651-7.4891-2.3488-9.7123
						c-5.6434-1.9871-11.4167-3.6096-17.2774-4.8164c-11.8497-2.44-24.0521-3.1514-36.0923-1.8963
						C307.6319,523.7374,287.5958,532.4393,270.8463,545.5856C266.3038,549.1829,275.4204,541.9955,270.8463,545.5856z"/>
				</g>
				<g>
					<path fill="#009245" d="M101.3315,888.1065c20.8107,18.8685,46.5105,32.9369,74.4465,37.3321
						c15.8246,2.4897,32.0519,1.8459,47.6143-1.966c6.9474-1.7017,13.7418-4.0113,20.3065-6.849
						c5.6064-2.4234,8.4475-1.5892,6.4611-8.1733c-1.3573-4.4988-2.8257-8.9642-4.4035-13.3904
						c-21.0576-59.0748-51.1041-115.8558-95.3873-160.9629c-21.3639-21.7614-46.7744-41.2132-76.0984-50.6529
						c-16.0254-5.1588-33.1256-7.0355-49.8393-4.7399c-1.1998,13.7769-0.5094,27.9977,0.4342,41.7729
						C29.1073,782.3976,54.9139,846.0215,101.3315,888.1065C104.49,890.9703,95.0145,882.3791,101.3315,888.1065z"/>
					<path fill="#009245" d="M269.5862,737.6617c-29.7086,42.6534-33.2713,97.1721-19.6275,146.132
						c1.6663,5.9795,3.8384,11.78,6.1434,17.5405c1.15,2.8741,2.3477,5.7282,3.5932,8.5622
						c3.9308-0.9833,7.8151-2.1514,11.6392-3.4907c11.5294-4.038,22.4866-9.6293,32.6761-16.3536
						c20.6669-13.6387,38.2926-31.9541,52.5613-52.1216c29.9407-42.3184,50.2532-96.4061,46.6151-148.8596
						c-0.5612-8.817-0.9272-8.4895-9.7481-8.844c-7.5937-0.3051-15.2086-0.1348-22.7768,0.5684
						c-15.0135,1.3949-29.9174,4.8562-43.8392,10.6876C303.5564,701.2286,284.2928,717.275,269.5862,737.6617
						C265.5115,743.5119,273.8144,731.8005,269.5862,737.6617z"/>
				</g>
				<g>
					<path fill="#009245" d="M225.6621,1212.5044c33.5898,12.0963,70.1627,16.4563,105.1487,7.9331
						c16.5683-4.0364,32.3797-10.8986,46.5941-20.3256c6.9356-4.5925,13.4875-9.7582,19.5994-15.3995
						c3.0442-2.8098,5.9796-5.7369,8.8033-8.7681c6.0745-6.5209,5.3798-6.4464-0.2831-13.1521
						c-48.6312-57.5862-107.6316-108.2123-174.9116-142.7209c-31.9089-16.5995-66.8779-29.7124-102.7998-33.8002
						c-18.5935-2.1146-37.5852-1.623-55.8627,2.5851c-8.0881,1.8621-16.0104,4.452-23.6036,7.8074
						c-3.8046,1.6813-7.5251,3.5527-11.1417,5.6077c2.1002,6.128,4.3094,12.2187,6.6293,18.2669
						c27.065,70.5604,75.8834,135.1031,141.9114,173.2791C198.479,1201.1792,211.825,1207.506,225.6621,1212.5044
						C230.7349,1214.3312,185.1677,1197.8766,225.6621,1212.5044z"/>
					<path fill="#009245" d="M349.703,958.7709c-15.331,64.4646,7.4152,132.9376,49.5049,182.5209
						c4.4738,5.2703,9.1748,10.348,14.089,15.2104c3.8039,3.7639,4.3594,7.0754,9.1502,3.295
						c3.1159-2.4587,6.1431-5.0297,9.0769-7.7031c10.7671-9.8114,20.2413-20.9911,28.4358-33.0239
						c18.5546-27.246,30.8137-58.7351,37.7958-90.8618c14.0673-64.7268,10.9999-135.5121-19.336-195.3588
						C416.4992,851.426,365.3742,894.3978,349.703,958.7709C341.4751,993.3678,351.8182,950.082,349.703,958.7709z"/>
				</g>
				<g>
					<path fill="#009245" d="M549.0374,1528.3889c24.0906-2.4326,47.7028-7.6027,70.2512-16.5337
						c11.4683-4.5424,24.4479-9.3339,31.8963-18.7656c29.7607-37.6851,62.1039-78.1134,78.2555-123.8562
						c-59.0536-22.0529-121.3912-38.5409-183.1251-51.0515c-74.2635-15.0497-155.0955-24.5778-229.7257-6.6508
						c-31.9296,7.6698-62.9572,20.9774-87.8182,42.8213c-5.7102,5.0172-11.0576,10.4475-15.9647,16.2533
						c-3.5277,4.1737-6.0644,4.5206-2.0239,9.0978c2.7679,3.1355,5.5514,6.2577,8.3851,9.3341
						c12.2789,13.3309,25.5857,25.9684,39.4814,37.5992c55.437,46.401,120.2361,80.4464,191.1565,95.6257
						C482.2257,1529.2017,516.011,1531.5656,549.0374,1528.3889C560.7364,1527.2076,545.4249,1528.7363,549.0374,1528.3889z"/>
					<path fill="#009245" d="M546.0101,1173.254c11.5442,66.1801,55.3677,120.858,112.1436,154.728
						c13.9623,8.3293,29.098,14.6958,44.4334,19.9963c5.1982,1.7968,10.4388,3.2946,15.754,4.6852
						c2.4531,0.6418,4.8942,1.2635,7.3638,1.8611c9.0182,2.1819,9.5274,2.9305,14.2141-5.1489
						c11.4099-19.67,13.4023-32.7018,13.3559-54.7511c-0.0439-20.8115-9.8135-103.704-11.1349-111.5164
						c-3.167-18.7241-7.2803-37.3251-12.4383-55.6027c-8.3079-29.4398-19.1146-57.5345-33.5311-84.5295
						c-10.4682-19.6019-23.9963-38.5492-39.5498-54.4368c-3.7425-3.8229-7.3944-7.7303-11.3494-11.3395
						c-4.5923-4.1907-9.2234-11.9314-14.5862-7.3552c-11.766,10.0405-22.8876,20.8566-33.0336,32.538
						C556.3612,1049.9218,535.6656,1110.4946,546.0101,1173.254C552.7978,1212.166,544.2068,1162.3135,546.0101,1173.254z"/>
				</g>
			</g>
			<path fill="#009245" d="M610.8433,38.8742c-9.0294,4.4617-17.0403,11.8774-20.4288,21.5384
				c18.9888,5.178,42.2161-5.6951,50.0024-23.8582C630.8152,33.2242,619.9235,34.6343,610.8433,38.8742
				C605.7821,41.3751,621.083,34.0929,610.8433,38.8742z"/>
		</g>
		<g>
			<path fill="#009245" d="M590.4146,60.4126C353.7247,185.9903,197.1522,451.1628,218.1223,721.072
				c11.0158,141.7852,66.3542,275.2073,154.1431,386.7454c80.9558,102.8564,192.0421,192.5106,317.2848,234.4708
				c17.0101,5.699,34.2234,10.5159,51.3517,15.8241c34.9138,10.8204,63.9904,40.9257,86.6222,68.2576
				c23.3189,28.1617,43.1163,59.4133,59.3143,92.1667c8.8063,17.8069,16.6569,36.2125,22.2625,55.2936
				c2.145,7.3013,6.7537,12.5948-1.4481,14.588c-3.8406,0.9333-7.6812,1.8667-11.5219,2.8
				c-7.7962-35.5093-24.329-69.3062-42.7325-100.4388c-19.1653-32.4211-41.9716-63.7136-70.1785-88.8962
				c-21.65-19.3287-44.3802-29.5171-71.7139-37.5397c-15.3624-4.6957-30.4255-10.109-45.3575-16.0255
				c-131.8975-52.2626-245.763-150.8586-326.2144-266.7552c-74.878-107.8679-126.5911-239.1246-129.2907-371.5977
				c-2.694-132.1982,27.8945-262.2866,94.4847-377.0678C372.1007,217.4572,471.9726,121.9538,590.4146,60.4126
				C529.6797,92.6359,529.4052,92.1124,590.4146,60.4126z"/>
		</g>
	</g>
	<g>
		<g>
			<g>
				<g>
					<path fill="#009245" d="M1095.2783,100.2808c9.7216-1.5065,19.0446-6.5692,24.2111-15.1589
						c4.8608-8.0816-25.0211-12.5158-30.3829-12.1632c-11.2637,0.7406-22.009,6.0619-27.5266,16.2533
						C1056.2726,99.0148,1088.6954,101.2976,1095.2783,100.2808C1107.4004,98.4023,1092.2448,100.7494,1095.2783,100.2808z"/>
					<path fill="#009245" d="M1095.082,53.7185c4.6617,10.5267,13.4843,19.4746,23.344,25.2577
						c11.2845,6.6189,8.6693-23.819,6.3129-29.4214c-4.3901-10.4452-12.7677-18.5652-22.3856-24.3079
						c-7.4985-4.4772-9.0234-0.4431-10.3877,7.5257C1090.7531,39.8549,1092.168,47.2202,1095.082,53.7185
						C1097.6792,59.5832,1092.468,47.8891,1095.082,53.7185z"/>
				</g>
				<g>
					<path fill="#009245" d="M1139.5806,137.2999c13.4886-1.0925,26.8394-7.3871,33.7817-19.445
						c-11.8563-10.503-28.557-16.5244-44.3938-14.8876c-6.2716,0.6472-40.4681,16.2164-29.8026,23.2706
						C1110.9611,134.0393,1125.3717,138.4585,1139.5806,137.2999C1143.4041,136.9902,1135.7554,137.6118,1139.5806,137.2999z"/>
					<path fill="#009245" d="M1144.1357,79.3246c5.1019,14.0488,15.2076,25.7268,27.229,34.3579
						c12.2372,8.7861,12.6499-29.4761,10.3124-36.4202c-4.8219-14.2978-15.2004-25.7791-27.6666-33.9687
						c-3.8647-2.5785-4.9547-4.8729-7.8533-0.1532c-2.0195,3.2882-3.4417,6.9216-4.2567,10.6905
						C1140.0651,62.3176,1141.1954,71.2244,1144.1357,79.3246C1145.5001,83.0817,1141.4086,71.8113,1144.1357,79.3246z"/>
				</g>
				<g>
					<path fill="#009245" d="M1189.5858,188.119c8.7509,0.2004,17.7594-1.2893,25.7897-4.8361
						c5.5818-2.4662,22.2213-11.4998,16.0559-17.5367c-12.2078-11.9531-28.4547-20.0325-45.587-21.3108
						c-17.4135-1.2993-34.8436,5.4562-45.1245,19.9582C1132.7175,175.6813,1180.479,187.9677,1189.5858,188.119
						C1194.3245,188.2275,1180.053,187.9607,1189.5858,188.119z"/>
					<path fill="#009245" d="M1202.7068,116.6628c4.3778,17.3224,14.8256,32.4177,27.5886,44.6482
						c3.6628,3.4931,4.4861,6.6304,8.6611,2.3216c3.7372-3.8568,6.7318-8.4037,8.8071-13.3566
						c4.1565-9.9196,4.4333-20.8071,2.1088-31.1966c-4.2391-18.4178-15.9084-34.6967-30.7996-46.1092
						c-4.0868-3.1321-5.6069-6.6558-9.3954-1.7831c-3.3026,4.2478-5.7208,9.139-7.2261,14.2982
						C1199.4894,95.6375,1200.1387,106.5018,1202.7068,116.6628C1203.9412,121.5473,1202.0895,114.2206,1202.7068,116.6628z"/>
				</g>
				<g>
					<path fill="#009245" d="M1243.1017,257.6589c20.71,3.0977,43.3136-1.5847,58.3363-16.9371
						c-13.4016-19.1032-34.3693-34.1949-57.7205-37.8956c-21.4213-3.3949-43.1838,3.1132-57.5083,19.7967
						C1176.1097,234.3856,1233.8124,256.1504,1243.1017,257.6589C1254.6835,259.3913,1231.6488,255.7991,1243.1017,257.6589z"/>
					<path fill="#009245" d="M1270.7498,171.3126c3.601,23.8264,14.7029,45.3701,30.2811,63.5657
						c4.745,5.5423,7.474,0.9918,11.9414-3.3989c4.5491-4.4711,8.2609-9.756,10.9753-15.5257
						c5.0026-10.5182,6.3408-22.357,5.2656-33.8682c-2.0323-24.8132-16.2079-48.7352-34.4225-65.2519
						c-5.3441-4.8459-5.7778-4.9943-10.7144,0.5898c-4.1874,4.7367-7.4407,10.2524-9.7233,16.1405
						C1269.7413,145.4608,1269.0001,158.7626,1270.7498,171.3126C1272.6128,183.64,1269.8822,165.0901,1270.7498,171.3126z"/>
				</g>
				<g>
					<path fill="#009245" d="M1295.0986,351.7322c14.2604,4.6197,29.6947,6.135,44.5244,3.7096
						c6.889-1.1266,13.6354-3.1585,19.9531-6.1361c3.7555-1.77,7.3547-3.8713,10.733-6.2852
						c-1.6074-3.6372-3.4976-7.1446-5.568-10.5378c-13.5436-22.1968-34.4369-41.0663-59.8308-48.2972
						c-27.0077-7.6905-55.4775-1.5291-75.6616,18.3423C1244.946,325.4153,1268.3805,343.7372,1295.0986,351.7322
						C1308.72,356.1449,1281.0923,347.541,1295.0986,351.7322z"/>
					<path fill="#009245" d="M1346.3539,250.9328c-0.0867,26.9596,7.4677,53.9994,20.5299,77.5372
						c1.5591,2.7921,3.1722,5.5526,4.8397,8.2814c3.4584,5.6926,4.0449,3.7041,9.2358,0.8442
						c6.6183-3.6463,12.5955-8.416,17.6094-14.07c10.5322-11.8769,16.0955-27.0818,17.9008-42.7074
						c3.7096-32.1076-9.0913-64.2167-27.9001-89.6556c-1.8684-2.3769-3.795-4.7057-5.7799-6.9864
						c-4.1855-4.809-4.7051-2.6179-9.1245,0.9285c-5.8997,4.7341-10.87,10.5606-14.7941,17.0176
						C1350.0532,216.6311,1346.3894,234.0956,1346.3539,250.9328C1346.3477,252.899,1346.3871,235.2257,1346.3539,250.9328z"/>
				</g>
				<g>
					<path fill="#009245" d="M1335.3358,476.2449c13.7523,7.3423,28.4556,12.6557,43.9384,14.802
						c8.4502,1.1714,17.024,1.402,25.5092,0.4537c4.2258-0.4723,8.4203-1.2311,12.5394-2.2884
						c5.7379-1.4727,12.8016-1.4277,11.1416-8.2151c-7.8857-32.2432-28.085-62.2485-56.4866-79.7565
						c-31.0702-19.1531-69.4167-19.7023-100.5286-0.3363c-5.4121,3.3689-2.5397,4.8247,0.0481,9.7288
						c1.92,3.6386,3.8699,7.2853,6.0161,10.7966c5.0054,8.189,10.8844,16.1483,17.454,23.1511
						C1306.5433,457.2297,1320.1815,468.1761,1335.3358,476.2449C1337.308,477.2979,1331.3848,474.1412,1335.3358,476.2449z"/>
					<path fill="#009245" d="M1423.3374,365.9065c-7.8164,37.7518-2.3455,77.4801,10.0339,113.6106
						c2.027,5.9163,3.6145,3.8157,8.9935,2.3635c5.0182-1.3548,9.9105-3.1745,14.5854-5.448
						c8.4631-4.1158,16.2087-9.7213,22.7738-16.4643c12.7607-13.1066,20.98-30.2915,25.0282-48.0027
						c8.752-38.2899,0.5173-79.9987-18.2228-114.1523c-2.1078-3.8413-4.3508-7.6069-6.6714-11.3229
						c-4.8387,1.8846-9.4688,4.2928-13.8036,7.1506c-7.7543,5.112-14.5188,11.6354-20.1666,18.9932
						C1434.0337,328.0775,1426.9221,346.8955,1423.3374,365.9065C1421.3059,375.7185,1425.1691,356.1924,1423.3374,365.9065z"/>
				</g>
				<g>
					<path fill="#009245" d="M1346.8221,634.0035c14.7831,13.0585,30.8254,24.2853,49.105,31.9242
						c9.5834,4.0048,19.6232,6.9591,29.8857,8.5923c5.9261,0.9431,11.9242,1.4432,17.9257,1.4514
						c6.4858,0.0089,13.3944,2.0847,13.6182-5.4623c1.3363-45.0649-15.4309-92.0434-50.4651-121.5864
						c-33.5466-28.2887-78.2676-34.3965-118.9695-18.6326C1296.6139,570.1,1316.3593,606.5744,1346.8221,634.0035
						C1350.9746,637.6716,1342.7405,630.3283,1346.8221,634.0035z"/>
					<path fill="#009245" d="M1487.3834,528.4052c-11.0448,24.2304-17.5591,50.1774-21.312,76.46
						c-1.7659,12.367-2.676,24.9042-2.92,37.3945c-0.1221,6.2525,0.0762,12.5082,0.2408,18.758
						c0.0814,3.1266,0.2255,6.2502,0.4321,9.3711c0.4518,6.788,2.6675,5.0578,8.6927,5.2049
						c49.968,1.2197,87.9055-34.2736,105.9835-78.3082c17.5834-43.4662,17.0222-93.2174,4.2577-137.8695
						c-1.5598-5.4565-1.5145-13.5753-8.0613-12.3242c-5.0973,0.9741-10.1047,2.4045-14.9554,4.2476
						c-11.1892,4.2515-21.4677,10.6792-30.5256,18.4731C1510.8593,485.6076,1497.2764,506.4592,1487.3834,528.4052
						C1484.7822,534.1119,1489.9528,522.7056,1487.3834,528.4052z"/>
				</g>
				<g>
					<path fill="#009245" d="M1302.903,815.0816c24.5271,43.1133,61.8853,82.7919,111.4945,95.239
						c19.7006-44.8205,24.8639-97.7664,5.6211-143.7843c-21.4646-50.2037-66.3721-82.0785-120.9775-85.6634
						c-6.0654-0.3982-12.1516-0.4629-18.225-0.2237c-3.0334,0.1201-6.0621,0.314-9.0861,0.5817
						c-0.168,4.0991-0.7504,8.165-0.8933,12.2693c-0.4749,13.6402,0.6798,27.3856,2.8593,40.8434
						C1278.2594,762.5236,1288.8175,790.3217,1302.903,815.0816C1304.5435,817.9653,1299.6219,809.3141,1302.903,815.0816z"/>
					<path fill="#009245" d="M1511.2841,748.4146c-37.7856,42.5023-63.9702,93.8293-82.9525,147.0825
						c-2.2192,6.2256-8.688,16.572-1.8573,19.7908c7.765,3.6591,15.8792,6.5839,24.2173,8.6324
						c15.701,3.8575,32.0706,4.484,48.0315,1.9307c32.2949-5.1664,60.7377-23.0705,83.3505-46.1371
						c43.752-44.6301,65.2411-108.3618,67.8683-169.9457c0.2368-6.356,0.308-12.7124,0.2754-19.0723
						c-0.0193-3.761-0.0616-7.5299-0.392-11.2792c-4.5295-0.6254-9.0992-0.9529-13.6715-0.9866
						c-16.0328-0.1182-31.8794,3.4252-46.6487,9.5606C1558.9963,700.6644,1532.4993,723.4219,1511.2841,748.4146
						C1505.983,754.3774,1521.4502,736.4384,1511.2841,748.4146z"/>
				</g>
				<g>
					<path fill="#009245" d="M1171.2325,999.6008c7.6097,58.4466,30.6494,119.0978,76.9905,157.6948
						c2.1287,1.7733,4.3007,3.4917,6.5164,5.155c3.047-2.8073,6.0194-5.6954,8.9143-8.6594
						c5.7937-5.9321,11.277-12.1674,16.4247-18.6678c10.2433-12.9351,19.1685-26.9246,26.5088-41.7036
						c15.1748-30.5527,23.5188-64.6655,22.4425-98.855c-2.103-66.8057-42.0471-122.3807-102.2931-149.8508
						c-6.2788-2.8629-12.6913-5.4304-19.1979-7.7283c-3.9113-1.3813-7.8567-2.6653-11.8295-3.8582
						c-1.962,3.86-3.8157,7.7751-5.5591,11.7386c-7.1479,16.2497-12.4045,33.2937-15.9552,50.68
						C1167.2164,929.7174,1166.6941,965.0737,1171.2325,999.6008C1171.76,1003.6512,1166.9653,967.1372,1171.2325,999.6008z"/>
					<path fill="#009245" d="M1443.4285,1020.474c-67.2844,34.4343-126.2939,85.0051-174.927,142.55
						c-3.6456,4.3138-7.3553,5.2482-3.0719,10.0804c2.7485,3.1008,5.6095,6.1021,8.5804,8.9905
						c5.9547,5.7891,12.3534,11.1228,19.1476,15.9004c15.1046,10.6215,32.0973,18.3303,50.0356,22.7102
						c34.969,8.538,71.5437,4.2157,105.1285-7.8633c66.077-23.8138,119.6161-75.8962,154.8905-135.6195
						c8.7362-14.7914,16.4493-30.188,23.0767-46.0366c3.3348-7.9749,6.394-16.0652,9.1652-24.2533
						c2.0536-6.0683-0.8561-5.4859-5.9982-7.9687c-4.976-2.4026-10.1115-4.472-15.3568-6.2086
						c-34.3396-11.3688-71.1045-7.8516-105.4292,1.562C1486.1129,1000.5219,1464.174,1009.7067,1443.4285,1020.474
						C1407.938,1038.6371,1452.2351,1015.9033,1443.4285,1020.474z"/>
				</g>
				<g>
					<path fill="#009245" d="M943.491,1130.9004c-4.7292,17.1285-8.4946,34.5687-11.4633,52.0853
						c-1.0544,6.2209-15.7822,128.0751-9.3519,143.4453c3.3086,7.9073,7.203,15.562,11.5052,22.973
						c2.6445,4.5554,2.5503,7.8929,8.1718,6.5898c3.9102-0.9065,7.8197-1.8253,11.7029-2.8422
						c29.1561-7.6349,58.0219-20.0378,82.2696-38.192c56.1318-42.0254,96.0691-106.0287,94.6527-177.9177
						c-0.7013-35.5989-11.1486-70.0582-29.5817-100.4696c-8.7615-14.4548-19.1255-27.9042-30.577-40.325
						c-5.7208-6.2051-11.7137-12.1575-17.9246-17.8715c-3.1042-2.856-6.2631-5.6525-9.4706-8.3918
						c-5.1582-4.4053-7.3796,0.9275-11.7572,4.8314C985.2208,1014.9802,959.8215,1073.0902,943.491,1130.9004
						C941.5063,1138.0887,944.1229,1128.6633,943.491,1130.9004z"/>
					<path fill="#009245" d="M1233.0151,1303.8452c-54.7019,3.546-108.7239,13.9266-161.7765,27.4158
						c-42.4968,10.8052-85.4561,22.6127-126.5616,38.0117c12.9473,36.6082,36.6075,68.4875,59.7466,99.2155
						c6.3705,8.4597,12.7912,16.8817,19.1206,25.3724c4.0844,5.479,9.3162,7.8005,16.0015,11.17
						c62.3641,31.4323,136.8545,29.8322,203.0828,13.0651c68.4613-17.3324,133.6948-54.2223,185.3016-102.2675
						c12.2882-11.4402,24.1233-23.2322,35.2374-35.8214c4.9875-5.6495-5.9498-13.7831-10.6559-18.49
						c-6.7324-6.7335-14.0883-12.8336-21.8989-18.2764c-29.9067-20.8405-65.9498-31.8901-101.7837-36.8394
						C1297.1676,1302.0281,1264.8719,1301.4747,1233.0151,1303.8452C1187.7053,1306.7823,1245.4905,1302.917,1233.0151,1303.8452z"
						/>
				</g>
			</g>
			<path fill="#009245" d="M1055.5558,57.5045c8.8516,4.3931,19.4611,5.9479,29.0874,3.3358
				c-6.6525-19.0723-30.9414-30.4818-49.9474-23.9139C1038.6404,46.1685,1046.5624,53.2923,1055.5558,57.5045
				C1060.4653,59.9412,1045.6409,52.8606,1055.5558,57.5045z"/>
		</g>
		<g>
			<path fill="#009245" d="M1084.6432,60.8404c237.8904,124.0032,397.1279,389.0502,378.4493,659.4703
				c-9.8567,142.7019-63.446,277.145-150.1891,390.6219c-80.9694,105.9237-193.7295,199.7911-321.0048,243.7045
				c-12.8059,4.4185-25.6026,8.6434-38.5991,12.4727c-29.6008,8.8256-53.2678,24.7496-74.8951,46.8589
				c-46.0182,47.0437-86.072,112.4856-100.2903,177.2496c-3.1187-0.7579-6.2374-1.5159-9.3561-2.2737
				c-5.6221-1.3663-7.6332,0.1295-6.0425-6.207c4.8535-19.3339,12.2645-37.9603,20.7258-55.9768
				c14.1603-30.1511,31.3768-59.637,51.8734-85.9663c22.0552-29.1567,48.4326-58.1567,81.1964-75.3844
				c17.1696-9.0281,36.3798-12.4834,54.6424-18.59c120.0699-40.1484,225.2292-116.1556,307.9643-211.4073
				c94.9011-109.2582,164.2917-250.672,175.6063-396.31c8.7668-112.8427-8.0326-226.092-52.1724-330.6998
				C1340.127,260.4608,1226.3663,136.2724,1084.6432,60.8404C1145.5767,92.6027,1145.3016,93.1258,1084.6432,60.8404z"/>
		</g>
	</g>
</g>
<path fill="none" stroke="#000000" stroke-width="0.6058" stroke-miterlimit="10" d="M944.0366,1522.4434"/>
</svg>
